<?xml version="1.0" encoding="UTF-8"?>
<!-- Generator: Adobe Illustrator 16.0.4, SVG Export Plug-In . SVG Version: 6.00 Build 0)  -->
<!DOCTYPE svg PUBLIC "-//W3C//DTD SVG 1.1//EN" "http://www.w3.org/Graphics/SVG/1.1/DTD/svg11.dtd">
<svg version="1.1" id="Livello_1" xmlns="http://www.w3.org/2000/svg" xmlns:xlink="http://www.w3.org/1999/xlink" x="0px" y="0px" width="335px" height="110px" viewBox="0 0 335 110" enable-background="new 0 0 335 110" xml:space="preserve">
<g>
	<g>
		<g>
			<g>
				<path fill="#333333" d="M114.298,33.585V29.12h-1.294v-1.142h2.655v5.607H114.298z"/>
				<path fill="#333333" d="M119.261,35.471c-0.274,0.198-0.595,0.346-0.939,0.449c-0.48,0.135-0.88,0.183-1.866,0.183v-1.226      c0.206,0,0.368-0.009,0.47-0.009c0.79-0.023,1.042-0.072,1.385-0.276c0.402-0.241,0.651-0.711,0.651-1.237      c0-0.856-0.515-1.327-1.568-1.428l-0.799-0.07v-3.878h3.535v1.142h-2.233v1.661l0.506,0.069c1.211,0.171,1.945,1.065,1.945,2.38      C120.349,34.202,119.982,34.958,119.261,35.471z"/>
				<path fill="#333333" d="M123.96,33.791c-1.694,0-3.052-1.327-3.052-2.963c0-1.637,1.358-2.964,3.052-2.964      c1.693,0,3.056,1.327,3.056,2.964C127.016,32.464,125.653,33.791,123.96,33.791z M123.96,29.113      c-0.928,0-1.668,0.765-1.668,1.715c0,0.947,0.741,1.725,1.668,1.725c0.93,0,1.671-0.778,1.671-1.725      C125.631,29.878,124.89,29.113,123.96,29.113z"/>
				<path fill="#333333" d="M130.64,33.835c-1.658,0-2.757-1.371-2.757-3.465c0-1.304,0.412-2.506,1.179-3.421      c0.732-0.881,1.556-1.248,2.826-1.248c0.229,0,0.41,0.01,0.892,0.045v1.145c-0.32-0.035-0.446-0.045-0.777-0.045      c-0.95,0-1.419,0.17-1.877,0.663c-0.479,0.515-0.618,0.834-0.802,1.762c0.369-0.217,0.517-0.286,0.848-0.391      c0.389-0.114,0.764-0.181,1.12-0.181c1.226,0,2.071,0.96,2.071,2.333C133.363,32.67,132.229,33.835,130.64,33.835z       M130.857,29.878c-0.148,0-0.413,0.033-0.653,0.103c-0.364,0.092-0.569,0.182-1.017,0.436c0.091,0.938,0.184,1.257,0.481,1.669      c0.25,0.355,0.64,0.572,1.041,0.572c0.732,0,1.258-0.663,1.258-1.557C131.967,30.37,131.522,29.878,130.857,29.878z"/>
			</g>
			<g>
				<path fill="#333333" d="M118.677,48.054c-0.548,0.376-1.188,0.546-2.127,0.546c-0.949,0-1.568-0.157-2.138-0.546      c-0.78-0.54-1.03-1.167-1.03-2.553v-4.598h1.427v4.678c0,1.121,0.583,1.684,1.786,1.684c1.101,0,1.685-0.596,1.685-1.684v-4.678      h1.44v4.598C119.72,46.886,119.466,47.504,118.677,48.054z"/>
				<path fill="#333333" d="M125.93,48.522l-3.238-4.886c-0.021-0.036-0.079-0.137-0.158-0.298      c-0.059-0.091-0.083-0.147-0.093-0.161c-0.046-0.091-0.069-0.136-0.104-0.263v5.538h-1.372v-7.549h1.657l3.169,4.963      c0.013,0.024,0.046,0.083,0.082,0.16c0.033,0.08,0.056,0.13,0.068,0.151l0.068,0.192l0.071,0.139v-5.605h1.358v7.619H125.93z"/>
				<path fill="#333333" d="M128.627,48.453v-7.549h1.441v7.549H128.627z"/>
				<path fill="#333333" d="M134.781,48.67h-1.008l-2.801-7.767h1.578l1.729,5.101l0.023,0.102l0.022,0.126l0.034,0.137l-0.011-0.08      c0-0.101,0.011-0.134,0.034-0.193l0.047-0.093l1.646-5.101h1.512L134.781,48.67z"/>
				<path fill="#333333" d="M138.475,48.453v-7.549h4.598v1.221h-3.156v1.867h2.584v1.224h-2.584v2.015h3.307v1.223L138.475,48.453      L138.475,48.453z"/>
				<path fill="#333333" d="M148.127,48.453l-1.727-3.019h-0.719v3.019h-1.443v-7.549h2.518c1.098,0,1.603,0.135,2.047,0.561      c0.413,0.376,0.619,0.925,0.619,1.633c0,0.584-0.139,1.053-0.412,1.419c-0.286,0.366-0.55,0.527-1.177,0.699l1.876,3.238      L148.127,48.453L148.127,48.453z M146.618,42.124h-0.936v2.083h0.936c0.917,0,1.315-0.321,1.315-1.076      C147.933,42.412,147.557,42.124,146.618,42.124z"/>
				<path fill="#333333" d="M155.208,42.699c-0.801-0.354-1.452-0.539-1.957-0.539c-0.674,0-1.109,0.276-1.109,0.697      c0,0.32,0.184,0.516,0.723,0.803c1.154,0.617,1.907,1.098,2.264,1.453c0.32,0.32,0.515,0.823,0.515,1.35      c0,1.348-0.985,2.137-2.655,2.137c-0.23,0-0.458-0.02-0.677-0.043c-0.535-0.08-0.789-0.163-1.577-0.524      c-0.104-0.048-0.274-0.128-0.492-0.23l0.606-1.327c0.548,0.295,0.777,0.411,1.076,0.525c0.378,0.138,0.789,0.217,1.087,0.217      c0.663,0,1.096-0.298,1.096-0.754c0-0.321-0.171-0.537-0.663-0.811l-1.165-0.667c-1.341-0.764-1.75-1.269-1.75-2.091      c0-0.377,0.114-0.77,0.296-1.054c0.127-0.194,0.323-0.388,0.56-0.561c0.551-0.376,1.02-0.503,1.9-0.503      c0.504,0,0.95,0.057,1.418,0.195c0.365,0.115,0.575,0.194,1.075,0.436L155.208,42.699z"/>
				<path fill="#333333" d="M156.763,48.453v-7.549h1.441v7.549H156.763z"/>
				<path fill="#333333" d="M162.997,42.124v6.329h-1.44v-6.329h-2.266v-1.221h5.971v1.221H162.997z"/>
				<path fill="#333333" d="M169.723,48.453l-0.598-1.864h-2.526l-0.618,1.864h-1.512l2.734-7.549h1.295l2.734,7.549H169.723z       M167.857,42.628l-0.869,2.738h1.75L167.857,42.628z"/>
				<path fill="#333333" d="M167.324,39.823l-1.291-1.351h1.269l1.077,1.351H167.324z"/>
				<path fill="#333333" d="M119.353,58.527c-0.696,0.742-1.693,1.111-3.053,1.111h-2.792v-7.556h2.801      c1.431,0,2.323,0.321,3.066,1.113c0.651,0.695,1.017,1.658,1.017,2.641C120.393,56.842,120.018,57.816,119.353,58.527z       M117.969,53.802c-0.401-0.299-0.982-0.447-1.807-0.447h-1.145v5.011h1.145c1.717,0,2.678-0.902,2.678-2.519      C118.84,54.99,118.508,54.201,117.969,53.802z"/>
				<path fill="#333333" d="M121.364,59.639v-7.555h4.6v1.228h-3.158v1.862h2.588v1.225h-2.588v2.014h3.307v1.229h-4.749V59.639z"/>
				<path fill="#333333" d="M132.883,59.533c-0.799,0.193-1.269,0.252-1.9,0.252c-2.504,0-4.243-1.604-4.243-3.938      c0-1.145,0.434-2.139,1.247-2.883c0.779-0.707,1.647-1.006,2.952-1.006c0.549,0,1.098,0.055,1.579,0.172      c0.365,0.091,0.594,0.17,1.119,0.4l-0.341,1.201c-0.274-0.104-0.48-0.17-0.62-0.217c-0.535-0.185-1.076-0.276-1.555-0.276      c-1.693,0-2.872,1.042-2.872,2.539c0,1.545,1.293,2.726,2.975,2.726c0.342,0,0.538-0.034,0.984-0.162V56.26h1.441v3.092      C133.307,59.432,133.056,59.499,132.883,59.533z"/>
				<path fill="#333333" d="M134.826,59.639v-7.555h1.442v6.327h3.089v1.228H134.826z"/>
				<path fill="#333333" d="M140.453,59.639v-7.555h1.442v7.555H140.453z"/>
				<path fill="#333333" d="M150.956,53.88c-0.804-0.352-1.455-0.537-1.957-0.537c-0.676,0-1.109,0.274-1.109,0.699      c0,0.321,0.182,0.514,0.719,0.801c1.157,0.615,1.912,1.1,2.267,1.452c0.321,0.32,0.514,0.826,0.514,1.352      c0,1.349-0.985,2.14-2.655,2.14c-0.229,0-0.457-0.024-0.673-0.046c-0.538-0.082-0.79-0.158-1.579-0.526      c-0.104-0.046-0.274-0.127-0.494-0.229l0.608-1.326c0.55,0.299,0.777,0.41,1.076,0.525c0.376,0.141,0.789,0.219,1.087,0.219      c0.662,0,1.098-0.299,1.098-0.754c0-0.322-0.171-0.539-0.664-0.814l-1.166-0.663c-1.339-0.767-1.752-1.268-1.752-2.093      c0-0.378,0.115-0.764,0.298-1.052c0.126-0.197,0.32-0.389,0.56-0.558c0.55-0.381,1.02-0.506,1.9-0.506      c0.5,0,0.95,0.055,1.418,0.193c0.366,0.116,0.571,0.194,1.075,0.438L150.956,53.88z"/>
				<path fill="#333333" d="M155.882,53.312v6.327h-1.44v-6.327h-2.266v-1.228h5.972v1.228H155.882z"/>
				<path fill="#333333" d="M164.267,59.236c-0.549,0.379-1.19,0.549-2.129,0.549c-0.945,0-1.567-0.162-2.138-0.549      c-0.78-0.537-1.032-1.17-1.032-2.551v-4.603h1.431v4.681c0,1.123,0.583,1.684,1.786,1.684c1.098,0,1.682-0.596,1.682-1.684      v-4.681h1.44v4.603C165.307,58.066,165.058,58.686,164.267,59.236z"/>
				<path fill="#333333" d="M172.262,58.527c-0.697,0.742-1.693,1.111-3.053,1.111h-2.792v-7.556h2.8      c1.434,0,2.323,0.321,3.067,1.113c0.653,0.695,1.021,1.658,1.021,2.641C173.305,56.842,172.925,57.816,172.262,58.527z       M170.879,53.802c-0.402-0.299-0.984-0.447-1.809-0.447h-1.146v5.011h1.146c1.717,0,2.676-0.902,2.676-2.519      C171.746,54.99,171.414,54.201,170.879,53.802z"/>
				<path fill="#333333" d="M174.236,59.639v-7.555h1.443v7.555H174.236z"/>
				<path fill="#333333" d="M119.353,69.71c-0.696,0.742-1.693,1.108-3.053,1.108h-2.792v-7.551h2.801      c1.431,0,2.323,0.317,3.066,1.107c0.651,0.697,1.017,1.661,1.017,2.645C120.393,68.029,120.018,68.999,119.353,69.71z       M117.969,64.982c-0.401-0.297-0.982-0.443-1.807-0.443h-1.145v5.01h1.145c1.717,0,2.678-0.904,2.678-2.518      C118.84,66.173,118.508,65.387,117.969,64.982z"/>
				<path fill="#333333" d="M121.331,70.818v-7.551h1.441v7.551H121.331z"/>
				<path fill="#333333" d="M132.758,70.416c-0.548,0.379-1.19,0.55-2.129,0.55c-0.948,0-1.566-0.157-2.138-0.55      c-0.777-0.535-1.031-1.164-1.031-2.551v-4.598h1.432v4.678c0,1.125,0.583,1.684,1.785,1.684c1.098,0,1.682-0.595,1.682-1.684      v-4.678h1.44v4.598C133.798,69.252,133.547,69.872,132.758,70.416z"/>
				<path fill="#333333" d="M138.865,70.818l-1.728-3.021h-0.722v3.021h-1.44v-7.551h2.517c1.096,0,1.602,0.139,2.047,0.562      c0.413,0.376,0.619,0.925,0.619,1.635c0,0.583-0.139,1.052-0.414,1.421c-0.285,0.366-0.55,0.526-1.176,0.696l1.875,3.237      H138.865z M137.353,64.492h-0.938v2.08h0.938c0.917,0,1.316-0.32,1.316-1.074C138.669,64.777,138.292,64.492,137.353,64.492z"/>
				<path fill="#333333" d="M144.262,70.818h-3.076v-7.551h2.732c0.984,0,1.476,0.125,1.889,0.504      c0.366,0.319,0.593,0.857,0.593,1.352c0,0.42-0.159,0.867-0.434,1.188c-0.331,0.377-0.643,0.514-1.237,0.549      c1.145,0.025,1.867,0.768,1.867,1.945C146.597,70.109,145.771,70.818,144.262,70.818z M143.633,64.412h-0.939v1.943h0.858      c0.813,0,1.248-0.342,1.248-0.982C144.8,64.766,144.365,64.412,143.633,64.412z M143.633,67.581h-0.939v2.083h0.939      c0.447,0,0.654-0.023,0.869-0.139c0.321-0.149,0.514-0.491,0.514-0.881C145.017,67.959,144.524,67.581,143.633,67.581z"/>
				<path fill="#333333" d="M147.521,70.818v-7.551h1.439v7.551H147.521z"/>
				<path fill="#333333" d="M155.218,70.889l-3.236-4.888c-0.026-0.032-0.081-0.136-0.16-0.298c-0.058-0.092-0.08-0.146-0.091-0.16      c-0.045-0.09-0.069-0.133-0.104-0.264v5.539h-1.372v-7.551h1.657l3.172,4.963c0.009,0.027,0.045,0.082,0.079,0.162      c0.033,0.078,0.055,0.129,0.067,0.148l0.068,0.193l0.071,0.139v-5.605h1.361v7.621H155.218L155.218,70.889z"/>
				<path fill="#333333" d="M161.806,70.966c-2.356,0-4.002-1.622-4.016-3.925c0-2.331,1.626-3.909,4.016-3.909      c2.381,0,4.002,1.578,4.002,3.909C165.808,69.344,164.152,70.966,161.806,70.966z M161.806,64.376      c-1.428,0-2.48,1.146-2.48,2.665c0,1.535,1.053,2.669,2.48,2.669c1.42,0,2.473-1.134,2.473-2.669      C164.279,65.521,163.226,64.376,161.806,64.376z"/>
				<path fill="#333333" d="M118.657,76.182c-0.492-0.356-1.077-0.527-1.74-0.527c-1.455,0-2.495,1.031-2.495,2.459      c0,1.623,1.077,2.688,2.723,2.688c0.537,0,0.984-0.092,1.66-0.355l0.263,1.215c-0.481,0.218-0.677,0.287-1.02,0.365      c-0.366,0.08-0.764,0.125-1.212,0.125c-1.177,0-2.026-0.295-2.732-0.938c-0.801-0.72-1.271-1.841-1.271-3.019      c0-1.1,0.411-2.096,1.154-2.825c0.755-0.745,1.601-1.054,2.848-1.054c0.962,0,1.717,0.229,2.368,0.723L118.657,76.182z"/>
				<path fill="#333333" d="M124.913,82.001l-0.595-1.862h-2.529l-0.618,1.862h-1.51l2.733-7.549h1.292l2.733,7.549H124.913z       M123.046,76.182l-0.869,2.731h1.752L123.046,76.182z"/>
				<path fill="#333333" d="M131.02,82.001l-1.728-3.021h-0.721v3.021h-1.442v-7.549h2.518c1.099,0,1.602,0.137,2.046,0.56      c0.414,0.379,0.619,0.928,0.619,1.637c0,0.586-0.138,1.055-0.411,1.42c-0.287,0.365-0.549,0.525-1.179,0.697l1.876,3.235H131.02      z M129.508,75.676h-0.937v2.084h0.937c0.914,0,1.318-0.322,1.318-1.074C130.826,75.961,130.447,75.676,129.508,75.676z"/>
				<path fill="#333333" d="M133.348,82.001v-7.549h1.443v6.325h3.091v1.224H133.348z"/>
				<path fill="#333333" d="M142.009,82.15c-2.357,0-4.004-1.623-4.015-3.924c0-2.334,1.626-3.912,4.015-3.912      c2.381,0,4.004,1.578,4.004,3.912C146.013,80.527,144.355,82.15,142.009,82.15z M142.009,75.561      c-1.43,0-2.481,1.146-2.481,2.668c0,1.533,1.052,2.666,2.481,2.666c1.42,0,2.473-1.133,2.473-2.666      C144.482,76.706,143.429,75.561,142.009,75.561z"/>
				<path fill="#333333" d="M153.263,82.001h-3.077v-7.549h2.734c0.982,0,1.476,0.126,1.888,0.502      c0.365,0.321,0.594,0.858,0.594,1.351c0,0.424-0.16,0.871-0.436,1.19c-0.332,0.378-0.64,0.514-1.235,0.547      c1.145,0.024,1.864,0.771,1.864,1.948C155.596,81.29,154.772,82.001,153.263,82.001z M152.635,75.598h-0.939v1.94h0.857      c0.813,0,1.249-0.341,1.249-0.981C153.802,75.949,153.366,75.598,152.635,75.598z M152.635,78.766h-0.939v2.082h0.939      c0.445,0,0.651-0.023,0.869-0.139c0.319-0.148,0.514-0.492,0.514-0.881C154.019,79.145,153.525,78.766,152.635,78.766z"/>
				<path fill="#333333" d="M160.354,82.15c-2.356,0-4.003-1.623-4.017-3.924c0-2.334,1.626-3.912,4.017-3.912      c2.381,0,4.001,1.578,4.001,3.912C164.355,80.527,162.699,82.15,160.354,82.15z M160.354,75.561      c-1.428,0-2.483,1.146-2.483,2.668c0,1.533,1.055,2.666,2.483,2.666c1.417,0,2.473-1.133,2.473-2.666      C162.827,76.706,161.772,75.561,160.354,75.561z"/>
			</g>
		</g>
		<g>
			<path fill="#00508C" d="M98.054,55.658c0-23.57-19.111-42.685-42.68-42.685c-23.57,0-42.681,19.114-42.681,42.685     c0,23.564,19.111,42.676,42.681,42.676C78.943,98.334,98.054,79.223,98.054,55.658"/>
			<path fill="#FFFFFF" d="M55.78,23.009c0.379,0.462,0.758,0.92,1.138,1.379c0.288,0.357,0.579,0.695,0.89,1.066     c0.067-0.062,0.128-0.12,0.204-0.164c0.465-0.409,0.944-0.809,1.424-1.209c0.294-0.25,0.433-0.226,0.626,0.091     c0.467,0.784,0.935,1.549,1.416,2.348c0.543-0.438,1.081-0.861,1.611-1.291c0.119-0.104,0.236-0.191,0.355-0.29     c0.28-0.209,0.453-0.171,0.582,0.143c0.329,0.749,0.654,1.508,0.978,2.266c0.037,0.089,0.082,0.174,0.128,0.273     c0.427-0.238,0.83-0.457,1.231-0.693c0.612-0.343,1.204-0.679,1.82-1.016c0.333-0.192,0.507-0.103,0.552,0.28     c0.082,0.724,0.161,1.44,0.236,2.165c0.011,0.1,0.017,0.182,0.04,0.309c0.671-0.217,1.308-0.421,1.956-0.629     c0.44-0.152,0.893-0.288,1.334-0.438c0.166-0.058,0.324-0.065,0.434,0.101c0.107,0.163,0.028,0.301-0.087,0.422     c-1.691,1.793-3.017,3.835-4.207,5.964c-0.08,0.121-0.042,0.205,0.013,0.298c0.322,0.543,0.574,1.117,0.548,1.758     c-0.031,0.829-0.216,1.611-0.768,2.278c-0.378,0.457-0.879,0.737-1.461,0.884c-0.209,0.061-0.41,0.183-0.604,0.283     c-0.447,0.22-0.898,0.457-1.355,0.677c-0.126,0.073-0.27,0.097-0.381,0.137c0.088,0.409,0.181,0.806,0.255,1.186     c0.084,0.406,0.114,0.806,0.209,1.2c0.293,1.106,1.181,1.853,2.314,1.971c0.516,0.038,0.966-0.144,1.421-0.334     c0.378-0.167,0.767-0.335,1.155-0.417c1.055-0.19,1.912,0.248,2.654,0.931c0.792,0.734,1.21,1.677,1.509,2.668     c0.325,1.044,0.435,2.113,0.48,3.198c0.13,3.123-0.155,6.215-0.955,9.249c-0.516,1.941-1.701,3.358-3.534,4.211     c-0.23,0.113-0.46,0.229-0.695,0.336c-0.973,0.445-1.432,1.213-1.436,2.269c-0.009,1.112-0.005,2.233-0.009,3.354     c0,1.711-0.004,3.451-0.006,5.17c-0.004,2.727-1.713,5.146-4.284,6.02c-0.999,0.336-2.035,0.557-3.059,0.834     c-0.774,0.211-1.441,0.545-1.832,1.296c-0.018,0.047-0.042,0.082-0.065,0.164c0.173,0.021,0.339,0.063,0.504,0.084     c1.058,0.226,1.516,1.323,0.919,2.21c-0.373,0.544-0.865,0.898-1.584,0.84c-0.225-0.021-0.461,0-0.701-0.01     c-0.3-0.027-0.549,0.098-0.719,0.35c-0.29,0.387-0.664,0.659-1.108,0.84c-0.306,0.106-0.602,0.11-0.922,0.008     c-0.469-0.188-0.884-0.443-1.176-0.867c-0.157-0.2-0.36-0.292-0.622-0.297c-0.399-0.008-0.799-0.006-1.209-0.07     c-0.797-0.08-1.379-0.805-1.375-1.641c0.004-0.758,0.557-1.289,1.4-1.394c0.099-0.021,0.179-0.03,0.306-0.048     c-0.314-0.688-0.818-1.168-1.507-1.348c-0.788-0.238-1.579-0.407-2.372-0.598c-1.999-0.477-3.578-1.545-4.605-3.332     c-0.625-1.092-0.775-2.3-0.775-3.537c0-2.641-0.032-5.297,0-7.942c0.005-1.187-0.497-1.962-1.58-2.423     c-1.344-0.571-2.482-1.422-3.293-2.684c-0.541-0.854-0.84-1.811-1.041-2.806c-0.528-2.584-0.771-5.197-0.73-7.849     c0.021-1.478,0.221-2.933,0.754-4.312c0.308-0.817,0.767-1.54,1.434-2.104c0.959-0.819,2.043-1.01,3.226-0.552     c0.232,0.09,0.442,0.2,0.651,0.322c0.499,0.258,1.008,0.295,1.547,0.148c1.214-0.347,2.025-1.356,2.113-2.66     c0.033-0.551,0.07-1.103,0.383-1.612c-0.126-0.041-0.219-0.08-0.334-0.101c-0.556-0.158-1.084-0.412-1.542-0.778     c-0.089-0.067-0.208-0.128-0.323-0.162c-1.302-0.232-2.115-1.072-2.354-2.411c-0.171-0.927-0.098-1.801,0.439-2.595     c0.036-0.062,0.029-0.194-0.009-0.256c-1.166-2.083-2.471-4.068-4.109-5.824c-0.029-0.039-0.086-0.062-0.098-0.101     c-0.019-0.116-0.079-0.276-0.023-0.361c0.052-0.073,0.225-0.134,0.313-0.123c0.293,0.072,0.578,0.17,0.867,0.267     c0.796,0.265,1.603,0.523,2.414,0.78c0.06,0.03,0.132,0.04,0.225,0.077c0.038-0.356,0.074-0.688,0.115-1.023     c0.048-0.52,0.104-1.022,0.157-1.543c0.035-0.351,0.226-0.469,0.543-0.29c0.973,0.554,1.955,1.107,2.928,1.653     c0.072,0.036,0.139,0.077,0.239,0.13c0.052-0.128,0.107-0.249,0.164-0.369c0.318-0.746,0.638-1.493,0.967-2.244     c0.135-0.326,0.308-0.373,0.588-0.149c0.667,0.541,1.334,1.079,2.024,1.624c0.06-0.085,0.103-0.161,0.142-0.233     c0.449-0.724,0.877-1.469,1.328-2.193c0.18-0.323,0.341-0.336,0.616-0.106c0.557,0.482,1.114,0.949,1.696,1.45     c0.693-0.847,1.362-1.685,2.039-2.531h0.295V23.009z M65.693,63.805c0.062-0.041,0.14-0.08,0.167-0.125     c0.581-1.027,1.429-1.714,2.496-2.18c1.098-0.48,1.793-1.305,2.126-2.449c0.259-0.939,0.395-1.902,0.46-2.865     c0.184-2.509,0.155-5.011-0.293-7.48c-0.123-0.736-0.307-1.451-0.567-2.154c-0.318-0.866-0.971-1.172-1.892-1.064     c-0.417,0.053-0.858,0.102-1.268,0.024c-1.481-0.238-2.607-1.376-2.897-2.849c-0.11-0.572-0.189-1.157-0.292-1.717     c-0.083-0.373-0.182-0.44-0.577-0.467c-0.259-0.018-0.507-0.035-0.765-0.055c-0.312-0.043-0.619-0.083-0.969-0.123     c1.227,1.955,2.059,3.992,2.549,6.202c1.224-0.328,2.368-0.204,3.431,0.59c-1.244,0.117-2.071,0.795-2.812,1.708     c1.183-0.152,2.194,0.082,3.116,0.876c-1.246,0.04-2.118,0.665-2.933,1.526c0.89-0.07,1.71,0.013,2.491,0.311     c0.775,0.297,1.441,0.762,2.072,1.415c-1.874-0.256-3.248,0.583-4.563,1.737c1.207,0.052,2.121,0.583,2.83,1.489     c-0.564-0.088-1.106-0.088-1.641,0.066c-0.521,0.162-1.003,0.416-1.48,0.771c1.078,0.369,2.171,0.621,2.792,1.765     c-1.208-0.204-2.296-0.147-3.306,0.609c1.126,0.313,2.098,0.784,2.633,1.896c-1.185-0.518-2.226,0.043-3.311,0.348     c0.024,0.052,0.024,0.07,0.032,0.072c0.091,0.039,0.183,0.08,0.279,0.109c1.008,0.346,1.719,1.012,2.103,2.014     c-0.069-0.015-0.143-0.041-0.221-0.062c-0.584-0.272-1.187-0.356-1.815-0.204c-0.686,0.156-1.382,0.343-1.867,0.891     c-0.36,0.403-0.662,0.875-0.986,1.301c-0.011,0.021,0,0.033,0,0.082h0.35h3.295c0.189,0,0.369-0.006,0.565-0.006     c0.129-0.006,0.225-0.076,0.261-0.224c0.123-0.508,0.27-1.021,0.4-1.528C65.693,63.969,65.688,63.887,65.693,63.805      M52.309,62.521c0.049-0.469,0.104-0.898,0.159-1.332c0.115-1.01,0.231-2.045,0.352-3.051c0.033-0.244-0.009-0.441-0.219-0.604     c-0.559-0.428-0.946-0.985-1.208-1.635c-0.836-1.976-1.057-4.022-0.593-6.143c0.321-1.491,0.999-2.764,2.302-3.643     c0.041-0.029,0.083-0.068,0.147-0.11c-0.188-0.166-0.346-0.296-0.491-0.444c-0.932-0.859-1.378-1.902-1.199-3.187     c0.279-2.027,2.013-3.415,4.124-3.268c1.916,0.125,3.446,1.812,3.438,3.772c-0.001,0.832-0.248,1.585-0.758,2.235     c-0.234,0.309-0.314,0.641-0.15,0.989c0.183,0.388,0.349,0.785,0.6,1.125c0.818,1.121,1.26,2.384,1.428,3.753     c0.155,1.266,0.072,2.52-0.103,3.771c-0.158,1.099-0.464,2.163-1.112,3.093c-0.179,0.27-0.268,0.551-0.274,0.879     c-0.013,1.115-0.027,2.207-0.046,3.326c-0.004,0.115,0.024,0.227,0.029,0.371c1.561-0.896,2.58-2.176,3.163-3.831     c0.501,2.794-0.537,4.949-2.745,6.63c0.181,0.204,0.337,0.377,0.513,0.584c0.132-0.158,0.233-0.269,0.346-0.393     c0.872-1.041,1.548-2.2,2.082-3.447c0.939-2.205,1.441-4.511,1.646-6.896c0.243-2.843,0.1-5.655-0.542-8.441     c-0.503-2.194-1.3-4.253-2.531-6.147c-0.448-0.689-1.043-1.204-1.85-1.453c-2.144-0.651-4.305-0.703-6.484-0.107     c-0.896,0.251-1.605,0.711-2.133,1.52c-0.847,1.313-1.523,2.687-2.02,4.164c-0.729,2.148-1.075,4.357-1.186,6.606     c-0.143,2.774,0.091,5.516,0.801,8.212c0.515,1.968,1.3,3.839,2.558,5.462c0.238,0.307,0.501,0.604,0.75,0.909     c0.359-0.444,0.351-0.528,0.002-0.89c-0.13-0.145-0.279-0.279-0.42-0.438c-1.253-1.391-1.958-3.001-1.876-4.91     c0.011-0.318,0.065-0.629,0.095-0.953C49.581,60.301,50.643,61.637,52.309,62.521 M64.521,34.109     c0.226,0.016,0.418,0.038,0.592,0.052c0.894,0.042,1.743-0.16,2.614-0.369c0.165-0.036,0.254-0.113,0.338-0.252     c0.898-1.619,1.907-3.153,3.054-4.587c0.115-0.132,0.213-0.26,0.362-0.449c-0.158,0.037-0.242,0.069-0.324,0.088     c-0.753,0.241-1.504,0.492-2.26,0.736c-0.28,0.086-0.429-0.015-0.457-0.303c-0.028-0.178-0.042-0.36-0.056-0.526     c-0.07-0.626-0.137-1.25-0.197-1.9c-0.1,0.051-0.164,0.082-0.245,0.123c-0.891,0.509-1.794,1.023-2.695,1.528     c-0.308,0.167-0.452,0.123-0.6-0.211c-0.32-0.749-0.638-1.5-0.959-2.249c-0.039-0.049-0.069-0.115-0.108-0.193     c-0.634,0.51-1.235,0.993-1.851,1.487c-0.345,0.283-0.458,0.251-0.699-0.129c-0.409-0.692-0.817-1.375-1.227-2.058     c-0.045-0.07-0.095-0.146-0.153-0.228c-0.509,0.449-1.005,0.866-1.503,1.285c-0.377,0.321-0.443,0.32-0.752-0.06     c-0.521-0.618-1.042-1.239-1.548-1.858c-0.066-0.082-0.123-0.14-0.202-0.225c-0.616,0.739-1.208,1.461-1.809,2.187     c-0.279,0.333-0.368,0.334-0.704,0.055c-0.531-0.446-1.063-0.893-1.597-1.351c-0.058,0.086-0.103,0.162-0.145,0.234     c-0.442,0.722-0.873,1.437-1.302,2.158c-0.199,0.34-0.334,0.36-0.654,0.112c-0.584-0.466-1.167-0.943-1.75-1.418     c-0.058-0.04-0.125-0.084-0.205-0.132c-0.368,0.856-0.72,1.684-1.085,2.511c-0.145,0.359-0.274,0.402-0.61,0.206     c-0.919-0.513-1.843-1.041-2.761-1.553c-0.073-0.039-0.146-0.078-0.248-0.133c-0.01,0.083-0.022,0.139-0.027,0.186     c-0.08,0.761-0.153,1.534-0.235,2.294c-0.039,0.327-0.183,0.418-0.499,0.325c-0.362-0.119-0.716-0.24-1.085-0.359     c-0.5-0.165-1.009-0.328-1.541-0.496c0.009,0.037,0.006,0.048,0.012,0.061c1.28,1.535,2.386,3.181,3.374,4.928     c0.031,0.055,0.114,0.128,0.18,0.131c0.719,0.163,1.435,0.319,2.158,0.437c0.402,0.062,0.802,0.038,1.193-0.15     c-0.234-0.733-0.458-1.458-0.677-2.19c1.466-0.327,2.906-0.375,4.355-0.145c0.158,0.032,0.33,0.052,0.482,0.001     c0.652-0.221,1.324-0.273,2.007-0.167c0.351,0.068,0.585-0.064,0.794-0.359c0.365-0.542,0.833-0.978,1.368-1.349     c0.537-0.375,0.933-0.375,1.468-0.005c0.539,0.369,1.035,0.795,1.409,1.327c0.231,0.348,0.514,0.461,0.924,0.387     c0.586-0.106,1.167-0.039,1.748,0.118c0.208,0.048,0.434,0.065,0.644,0.048c0.906-0.122,1.817-0.233,2.733-0.115     c0.53,0.075,1.05,0.176,1.601,0.263C64.94,32.633,64.731,33.354,64.521,34.109 M69.394,44.805     c0.087,0.075,0.138,0.118,0.195,0.149c0.602,0.341,1.016,0.842,1.244,1.486c0.133,0.355,0.232,0.709,0.317,1.068     c0.386,1.651,0.541,3.335,0.607,5.016c0.069,1.985-0.011,3.979-0.365,5.94c-0.327,1.755-1.244,3.062-2.896,3.796     c-1.674,0.754-2.474,2.043-2.483,3.854c-0.015,3.066-0.026,6.109-0.035,9.166c0,0.658-0.067,1.312-0.336,1.918     c-0.909,1.98-2.442,3.141-4.58,3.511c-1.705,0.261-3.16,0.999-4.335,2.247c-0.24,0.254-0.334,0.531-0.24,0.87     c0.109,0.383,0.026,0.718-0.261,0.978c-0.374,0.397-0.958,0.481-1.39,0.211c-0.485-0.306-0.701-0.884-0.516-1.392     c0.073-0.188,0.031-0.331-0.094-0.476c-0.722-0.858-1.583-1.569-2.662-1.943c-0.712-0.26-1.465-0.436-2.214-0.6     c-2.662-0.598-4.594-2.742-4.525-5.67c0.023-1.305,0.008-2.621,0.002-3.918c-0.006-1.722-0.021-3.443-0.028-5.17     c-0.009-1-0.37-1.879-1.04-2.609c-0.475-0.516-1.073-0.834-1.695-1.102c-0.946-0.433-1.665-1.105-2.108-2.048     c-0.333-0.705-0.532-1.452-0.652-2.221c-0.243-1.565-0.284-3.122-0.257-4.691c0.019-2.033,0.196-4.044,0.695-6.022     c0.235-0.942,0.653-1.775,1.562-2.257c0.042-0.017,0.059-0.055,0.09-0.101c-0.394-0.123-0.842-0.124-1.232-0.038     c-0.946,0.227-1.567,0.857-2.026,1.678c-0.583,1.073-0.875,2.222-0.957,3.419c-0.208,3.11-0.03,6.19,0.665,9.223     c0.209,0.899,0.477,1.776,1.001,2.558c0.701,1.016,1.666,1.678,2.77,2.207c0.366,0.17,0.748,0.35,1.064,0.594     c0.85,0.653,1.055,1.58,1.055,2.584c-0.001,2.85-0.001,5.694,0.031,8.535c0.026,2.053,0.944,3.611,2.703,4.686     c1.048,0.632,2.199,0.945,3.388,1.134c0.806,0.116,1.556,0.351,2.205,0.87c0.448,0.363,0.79,0.794,0.955,1.343     c0.226,0.831-0.215,1.077-0.833,0.916c-0.332-0.103-0.625,0.04-0.792,0.333c-0.166,0.286-0.15,0.581,0.066,0.868     c0.268,0.337,0.618,0.463,1.049,0.429c0.386-0.008,0.785-0.027,1.177-0.076c0.173-0.016,0.292,0.068,0.377,0.213     c0.191,0.272,0.375,0.531,0.594,0.772c0.447,0.5,1.031,0.5,1.49,0.028c0.201-0.195,0.359-0.445,0.513-0.676     c0.276-0.388,0.265-0.388,0.725-0.283c0.629,0.113,1.239,0.098,1.799-0.256c0.337-0.224,0.428-0.566,0.296-0.899     c-0.137-0.334-0.453-0.507-0.828-0.472c-0.089,0.021-0.173,0.05-0.255,0.059c-0.457,0.027-0.666-0.169-0.629-0.605     c0.031-0.541,0.265-0.981,0.629-1.365c0.564-0.594,1.263-0.932,2.051-1.11c0.825-0.173,1.662-0.34,2.472-0.589     c1.979-0.596,3.339-1.885,3.938-3.896c0.261-0.857,0.226-1.771,0.226-2.67c0-2.531,0.004-5.068,0.006-7.603     c0-1.166,0.52-2.036,1.551-2.601c0.247-0.135,0.508-0.26,0.76-0.379c1.876-0.879,3.053-2.313,3.502-4.342     c0.566-2.541,0.838-5.125,0.833-7.715c-0.005-1.392-0.125-2.762-0.549-4.087c-0.287-0.919-0.735-1.75-1.511-2.35     C71.017,44.727,70.275,44.546,69.394,44.805 M43.589,58.744c0.569-1.119,1.667-1.41,2.713-1.811     c-0.981-0.594-1.945-1.05-3.119-0.785c0.282-0.305,0.551-0.58,0.86-0.805c0.581-0.459,1.263-0.628,2.055-0.667     c-1.333-1.148-2.722-1.979-4.58-1.793c1.273-1.292,2.748-1.818,4.521-1.687c-0.821-0.878-1.692-1.508-2.911-1.522     c0.847-0.886,1.936-0.876,3.07-1c-0.474-0.397-0.878-0.765-1.309-1.094c-0.445-0.343-0.992-0.41-1.594-0.453     c1.11-0.786,2.257-0.987,3.502-0.647c0.58-2.187,1.427-4.226,2.553-6.195c-0.655,0.072-1.249,0.152-1.834,0.219     c-0.25,0.022-0.376,0.16-0.418,0.388c-0.084,0.541-0.201,1.078-0.287,1.618c-0.342,2.211-2.545,3.453-4.297,2.966     c-0.303-0.088-0.624-0.035-0.917,0.108c-0.541,0.255-0.817,0.702-0.98,1.257c-0.55,1.847-0.764,3.751-0.828,5.676     c-0.067,1.904,0.057,3.782,0.343,5.657c0.239,1.588,1.036,2.758,2.506,3.463c0.544,0.262,1.043,0.648,1.52,1.016     c0.51,0.4,0.816,0.959,1.002,1.566c0.116,0.418,0.229,0.812,0.355,1.211c0.083,0.293,0.195,0.383,0.5,0.383     c1.212,0,2.422-0.006,3.638-0.008c0.115,0,0.238-0.016,0.395-0.043c-0.322-0.4-0.598-0.771-0.903-1.125     c-0.754-0.916-1.752-1.236-2.915-1.111c-0.369,0.031-0.72,0.176-1.128,0.279c0.456-1.115,1.279-1.752,2.416-2.117     c-1.084-0.547-2.154-0.832-3.365-0.385c0.322-0.543,0.661-0.992,1.146-1.267c0.467-0.28,0.972-0.487,1.469-0.724     C45.808,58.741,44.766,58.383,43.589,58.744 M63.813,78.331c-0.165-0.146-0.306-0.274-0.436-0.396     c-2.363-2.332-4.732-4.666-7.101-6.985c-1.331-1.312-2.655-2.612-3.982-3.937c-0.211-0.209-0.443-0.377-0.757-0.377     c-1.521-0.002-3.035-0.002-4.557,0c-0.068,0-0.137,0.043-0.257,0.078c0.222,0.172,0.407,0.305,0.566,0.467     c3.641,3.598,7.271,7.203,10.903,10.801c0.595,0.586,1.19,1.168,1.776,1.767c0.238,0.237,0.501,0.331,0.83,0.206     c0.14-0.081,0.294-0.088,0.435-0.139C62.215,79.539,63.061,79.037,63.813,78.331 M59.254,80.141     c-4.506-4.463-9.04-8.959-13.616-13.502c-0.01,0.143-0.019,0.221-0.019,0.293c-0.001,1.205,0,2.42-0.02,3.633     c0,0.496,0.168,0.908,0.533,1.252c3.355,3.358,6.719,6.724,10.06,10.062c0.078,0.077,0.109,0.165,0.161,0.25     c0.005-0.026,0.022-0.085,0.036-0.11C57.335,81.387,58.282,80.787,59.254,80.141 M58.565,65.758     c-0.537-1.15-0.501-2.332-0.501-3.521c0-1.364,0-2.725,0-4.098c0-0.256-0.043-0.502-0.218-0.697     c-1.452-1.588-2.118-3.5-2.359-5.597c-0.05-0.452-0.07-0.904-0.099-1.294c-0.425,0.39-0.876,0.794-1.295,1.218     c-0.116,0.115-0.142,0.352-0.147,0.53c-0.011,0.6,0.012,1.212,0.032,1.81c0.027,0.72-0.073,1.417-0.25,2.109     c-0.079,0.295-0.147,0.583-0.167,0.879c-0.097,1.096-0.162,2.195-0.25,3.289c-0.159,1.729-0.457,3.428-1.123,5.055     c-0.035,0.099-0.06,0.197-0.094,0.318H58.565z M46.337,34.84c-0.529,0-1.01-0.004-1.487,0.005     c-0.195,0.008-0.334,0.124-0.397,0.321c-0.104,0.306-0.226,0.626-0.301,0.937c-0.403,1.649,0.459,3.074,2.103,3.499     c1.346,0.358,2.635,0.19,3.871-0.45c0.542-0.275,1.088-0.565,1.657-0.775c1.858-0.668,3.753-0.75,5.688-0.418     c1.091,0.176,2.116,0.501,3.069,1.088c1.227,0.748,2.578,0.893,3.977,0.58c2.427-0.54,2.661-3.173,1.823-4.501     c-0.066-0.107-0.19-0.23-0.278-0.237c-0.489-0.016-0.968-0.012-1.497-0.012c0.018,0.209,0.018,0.402,0.058,0.582     c0.109,0.484,0.234,0.96,0.343,1.435c0.135,0.567-0.039,0.965-0.532,1.191c-0.934,0.403-1.87,0.459-2.774-0.081     c-1.479-0.875-3.08-1.36-4.798-1.539c-2.701-0.273-5.257,0.126-7.63,1.503c-0.868,0.508-1.763,0.549-2.693,0.17     c-0.66-0.262-0.813-0.585-0.648-1.29C46.04,36.191,46.183,35.534,46.337,34.84 M53.045,66.645     c3.768,3.729,7.514,7.41,11.257,11.09c0.387-0.438,0.727-0.889,0.782-1.476c0.064-0.758,0.06-1.521,0.101-2.278     c0.018-0.445-0.132-0.789-0.455-1.092c-1.977-1.957-3.953-3.916-5.918-5.873c-0.273-0.277-0.583-0.402-0.958-0.402     c-1.518,0.023-3.03,0.023-4.545,0.023C53.248,66.637,53.182,66.637,53.045,66.645 M45.641,72.428     c-0.01,0.135-0.021,0.219-0.021,0.311c0.009,0.882,0.021,1.762,0.021,2.638c0.014,1.386,0.609,2.494,1.595,3.409     c0.768,0.691,1.71,1.004,2.709,1.174c1.819,0.355,3.409,1.113,4.661,2.52c0.146,0.148,0.348,0.273,0.541,0.358     c0.291,0.119,0.583,0.031,0.749-0.235C52.496,79.206,49.092,75.839,45.641,72.428 M51.769,36.125     c2.416-0.622,4.834-0.601,7.252-0.008c0-1.328-0.059-2.638,0.458-3.881c-0.458-0.11-0.907-0.113-1.324,0.025     c-0.385,0.121-0.611-0.004-0.859-0.305c-0.443-0.542-0.937-1.049-1.442-1.528c-0.377-0.348-0.67-0.307-1.037,0.071     c-0.448,0.49-0.9,0.967-1.311,1.487c-0.237,0.299-0.461,0.388-0.823,0.266c-0.437-0.129-0.882-0.129-1.365-0.004     C51.935,33.486,51.726,34.792,51.769,36.125 M59.686,66.678c1.792,1.871,3.553,3.699,5.33,5.545     c0.108-0.168,0.16-5.086,0.063-5.545H59.686z M57.989,44.374c0.04-0.063,0.075-0.092,0.1-0.13c0.36-0.57,0.394-1.207,0.296-1.851     c-0.292-1.732-1.991-2.861-3.699-2.471c-1.734,0.391-2.741,2.083-2.249,3.805c0.246,0.863,0.752,1.511,1.595,1.869     c0.218,0.093,0.33,0.035,0.362-0.189c0-0.133-0.05-0.276-0.118-0.399c-0.049-0.096-0.147-0.166-0.224-0.25     c-0.619-0.647-0.735-1.753-0.243-2.546c0.443-0.741,1.371-1.061,2.258-0.791c0.91,0.282,1.392,0.959,1.651,1.826     C57.822,43.604,57.894,43.967,57.989,44.374 M46.476,32.314c0.083,0.21,0.123,0.35,0.167,0.479     c0.315,0.841,0.416,1.71,0.263,2.591c-0.099,0.559-0.239,1.112-0.352,1.659c-0.065,0.294,0.045,0.47,0.331,0.546     c0.238,0.073,0.482,0.119,0.732,0.152c0.441,0.059,0.555,0,0.733-0.404c0.423-0.935,0.626-1.918,0.542-2.947     c-0.042-0.62-0.136-1.236-0.468-1.782c-0.074-0.113-0.216-0.273-0.327-0.278C47.565,32.291,47.052,32.314,46.476,32.314      M64.275,32.362c-0.498-0.027-0.973-0.067-1.46-0.072c-0.234-0.01-0.387,0.125-0.469,0.336c-0.624,1.628-0.579,3.218,0.177,4.791     c0.068,0.127,0.249,0.27,0.379,0.279c0.328,0.014,0.651-0.022,0.957-0.068c0.317-0.053,0.438-0.229,0.411-0.542     c-0.038-0.293-0.113-0.584-0.175-0.877c-0.197-0.852-0.362-1.706-0.157-2.583C64.024,33.209,64.15,32.799,64.275,32.362      M56.287,51.349c0.146,2.209,0.649,4.256,2.422,5.793c0.676-1.178,0.827-2.464,0.938-3.761     C58.231,53.157,57.151,52.443,56.287,51.349 M59.605,51.277c0.034-0.564-0.075-1.063-0.223-1.524     c-0.361-1.123-0.905-2.154-1.821-2.923c-0.203-0.173-0.445-0.292-0.707-0.463c-0.125,0.996-0.248,1.93-0.34,2.848     c-0.043,0.382,0.025,0.495,0.396,0.61C57.875,50.132,58.804,50.519,59.605,51.277 M61.771,32.264     c-0.375,0.027-0.708,0.065-1.046,0.093c-0.55,0.058-0.619,0.104-0.779,0.638c-0.259,0.858-0.259,1.747-0.243,2.632     c0.006,0.477,0.152,0.793,0.636,0.96c0.307,0.096,0.601,0.27,0.896,0.41c0.127,0.048,0.258,0.107,0.438,0.178     C61.065,35.501,61.13,33.902,61.771,32.264 M49.143,37.2c0.62-0.29,1.18-0.536,1.722-0.831c0.112-0.069,0.195-0.283,0.203-0.429     c0.036-0.458,0.036-0.921,0.036-1.381c0-0.572-0.067-1.141-0.266-1.684c-0.119-0.334-0.35-0.502-0.711-0.509     c-0.238-0.006-0.485-0.052-0.727-0.075c-0.107-0.006-0.22-0.016-0.373-0.027C49.685,33.898,49.737,35.512,49.143,37.2      M53.942,46.436c-1.216,0.267-2.926,3.323-2.59,4.617c0.041-0.005,0.068-0.005,0.093-0.029c0.532-0.308,1.073-0.598,1.58-0.931     c0.157-0.086,0.285-0.294,0.328-0.468c0.139-0.588,0.234-1.188,0.336-1.784C53.777,47.378,53.857,46.917,53.942,46.436      M52.778,56.678c0.646-1.369,0.532-2.722,0.532-4.129c-0.095,0.07-0.167,0.108-0.234,0.148c-0.432,0.269-0.892,0.479-1.399,0.562     c-0.199,0.026-0.241,0.086-0.227,0.28c0.136,1.069,0.528,2.036,1.162,2.898C52.655,56.512,52.704,56.566,52.778,56.678      M55.27,47.687c-0.041-0.004-0.063-0.007-0.089-0.01c-0.035,0.257-0.134,0.53-0.104,0.771c0.112,0.835-0.224,1.396-0.919,1.811     c-0.733,0.428-1.466,0.873-2.18,1.339c-0.195,0.118-0.356,0.308-0.497,0.495c-0.057,0.083-0.088,0.27-0.033,0.336     c0.055,0.081,0.238,0.081,0.349,0.061c0.168-0.042,0.331-0.124,0.474-0.217c1.103-0.642,2.041-1.474,2.88-2.426     c0.112-0.119,0.203-0.256,0.267-0.397C55.695,48.879,55.623,48.084,55.27,47.687 M54.037,49.521     c0.399-0.016,0.556-0.15,0.581-0.479c0.054-0.49,0.094-0.962,0.149-1.451c0.027-0.299,0.169-0.46,0.437-0.488     c0.283-0.033,0.467,0.071,0.578,0.362c0.072,0.154,0.112,0.311,0.165,0.464h0.039c0.118-0.864,0.221-1.736,0.327-2.578     c-0.372,0.038-0.706,0.092-1.041,0.106c-0.159,0.004-0.214,0.051-0.252,0.203c-0.172,0.598-0.375,1.196-0.529,1.805     C54.321,48.131,54.184,48.814,54.037,49.521 M56.062,44.314c0-0.603-0.537-1.341-1.128-1.558     c-0.482-0.168-0.779,0.037-0.789,0.538c-0.024,0.629,0.542,1.418,1.127,1.604C55.742,45.043,56.062,44.798,56.062,44.314      M67.061,38.461l0.046,0.042c0.088-0.071,0.188-0.125,0.271-0.21c1.05-0.917,1.211-2.385,0.406-3.644     c-0.195-0.314-0.257-0.321-0.578-0.161c-0.099,0.048-0.207,0.095-0.331,0.137C67.608,35.877,67.653,37.159,67.061,38.461      M43.724,38.503c-0.25-0.625-0.418-1.268-0.39-1.946c0.023-0.68,0.261-1.314,0.599-1.932c-0.189-0.082-0.351-0.171-0.528-0.229     c-0.069-0.02-0.221,0.018-0.257,0.065c-0.487,0.747-0.757,1.548-0.548,2.457C42.766,37.588,43.14,38.125,43.724,38.503      M57.561,46c0-0.069,0.007-0.098,0-0.125c-0.145-0.829-0.281-1.661-0.458-2.477c-0.137-0.647-0.54-1.135-1.157-1.394     c-0.304-0.143-0.631-0.154-0.97,0c0.048,0.032,0.085,0.053,0.119,0.071c0.881,0.331,1.346,1.002,1.528,1.897     c0.092,0.462,0.188,0.916,0.294,1.369C56.998,45.672,57.205,45.897,57.561,46 M56.021,50.137     c-0.009,0.031-0.024,0.045-0.044,0.076c0.44,0.379,0.853,0.797,1.319,1.131c0.598,0.443,1.244,0.832,1.871,1.243     c0.17,0.104,0.358,0.075,0.455-0.067c0.057-0.084-0.032-0.26-0.062-0.4c-0.018-0.041-0.071-0.07-0.095-0.11     C58.54,50.965,57.239,50.632,56.021,50.137 M58.939,64.473c0.029,0.01,0.05,0.031,0.082,0.043c1-0.922,1.787-2.002,2.231-3.367     c-0.085,0.031-0.104,0.031-0.104,0.035c-0.634,0.729-1.363,1.334-2.17,1.851c-0.094,0.062-0.166,0.245-0.166,0.366     C58.829,63.764,58.896,64.118,58.939,64.473 M51.801,64.553c0.072-0.318,0.136-0.589,0.207-0.873     c0.085-0.354,0.062-0.396-0.239-0.584c-0.746-0.459-1.378-1.02-1.924-1.686c-0.042-0.051-0.075-0.107-0.118-0.163     c-0.013,0.015-0.042,0.026-0.05,0.056C50.018,62.598,50.776,63.634,51.801,64.553 M43.724,52.298     c0.826,0.417,1.631,0.841,2.443,1.263c0-0.385,0.016-0.802-0.019-1.219c-0.007-0.108-0.148-0.259-0.256-0.292     C45.14,51.882,44.397,51.967,43.724,52.298 M64.649,53.676c0.792-0.625,1.624-1.081,2.624-1.292     c-0.8-0.389-1.581-0.485-2.375-0.334c-0.085,0.027-0.224,0.149-0.231,0.232C64.647,52.726,64.649,53.176,64.649,53.676      M48.374,63.223c-0.126-0.225-0.252-0.502-0.407-0.752c-0.059-0.084-0.199-0.186-0.283-0.168     c-0.477,0.082-0.916,0.248-1.218,0.582C47.097,62.998,47.725,63.107,48.374,63.223 M64.406,62.898     c-0.396-0.349-0.803-0.525-1.275-0.59c-0.067-0.006-0.192,0.021-0.221,0.069c-0.143,0.237-0.276,0.493-0.436,0.791     C63.147,63.077,63.752,62.998,64.406,62.898 M64.374,56.35c0.564-0.412,1.122-0.633,1.774-0.715     c-0.379-0.273-1.179-0.447-1.571-0.342c-0.048,0.007-0.1,0.068-0.104,0.117C64.437,55.707,64.404,56.002,64.374,56.35      M45.619,60.453c0.648,0.17,1.23,0.309,1.856,0.479c-0.089-0.262-0.167-0.473-0.251-0.685c-0.074-0.19-0.208-0.256-0.404-0.2     c-0.274,0.062-0.553,0.133-0.842,0.215C45.876,60.288,45.775,60.369,45.619,60.453 M46.372,49.425     c-0.507-0.171-1.007-0.206-1.564-0.045c0.513,0.333,0.997,0.644,1.5,0.969C46.334,50.008,46.35,49.727,46.372,49.425      M46.443,56.264c-0.024-0.24-0.058-0.504-0.093-0.766c-0.007-0.15-0.082-0.205-0.229-0.22c-0.475-0.044-0.905,0.046-1.286,0.265     C45.349,55.768,45.89,56.012,46.443,56.264 M65.145,60.459c-0.414-0.324-0.83-0.423-1.287-0.445     c-0.062,0-0.169,0.037-0.205,0.096c-0.101,0.236-0.196,0.486-0.312,0.8C63.981,60.744,64.529,60.602,65.145,60.459      M63.981,58.598c0.563-0.201,1.125-0.391,1.696-0.586c-0.403-0.242-0.836-0.377-1.323-0.34c-0.077,0.008-0.19,0.09-0.208,0.174     C64.063,58.102,64.024,58.371,63.981,58.598 M65.994,49.38c-0.473-0.121-0.898-0.148-1.315-0.033     c-0.089,0.033-0.202,0.162-0.209,0.243c-0.021,0.245,0.015,0.489,0.045,0.764C65.021,50.024,65.482,49.714,65.994,49.38      M46.601,48.09c0.029-0.273,0.057-0.567,0.057-0.862c0-0.068-0.097-0.18-0.169-0.21c-0.422-0.167-0.848-0.156-1.248-0.062     C45.684,47.325,46.141,47.702,46.601,48.09 M65.535,46.96c-0.376-0.088-0.78-0.088-1.181,0.045     c-0.086,0.042-0.221,0.148-0.217,0.216c0.009,0.296,0.053,0.595,0.089,0.868C64.674,47.702,65.106,47.332,65.535,46.96      M45.215,57.986c0.535,0.205,1.063,0.404,1.622,0.621c-0.061-0.26-0.113-0.519-0.188-0.781c-0.006-0.064-0.09-0.145-0.139-0.146     C46.025,57.635,45.588,57.719,45.215,57.986 M55.388,83.615c-0.226,0.007-0.405,0.189-0.392,0.428     c0.008,0.232,0.184,0.402,0.397,0.402c0.226-0.012,0.416-0.219,0.416-0.426C55.806,83.79,55.599,83.607,55.388,83.615"/>
			<path fill="#FFFFFF" d="M60.187,71.766c-0.146,0.305-0.291,0.584-0.451,0.896c-0.228-0.268-0.441-0.521-0.675-0.775     c0.251-0.166,0.503-0.303,0.764-0.455c-0.722-0.804-1.429-1.586-2.179-2.428c0.291,0.012,0.531,0.027,0.762,0.049     c0.431,0.024,0.86,0.053,1.279,0.094c0.324,0.037,0.405,0.121,0.457,0.435c0.043,0.302,0.087,0.603,0.14,0.901     c0.029,0.104,0.103,0.205,0.187,0.259c0.039,0.026,0.195-0.035,0.218-0.087c0.042-0.1,0.042-0.223,0.007-0.332     c-0.015-0.1-0.094-0.194-0.158-0.303c0.346-0.047,0.871,0.303,0.922,0.615c0.014,0.07-0.04,0.174-0.104,0.254     c-0.096,0.094-0.233,0.178-0.362,0.291c0.101,0.215,0.286,0.279,0.501,0.295c0.198,0.01,0.402,0,0.61,0     c0.218,0.016,0.352,0.116,0.375,0.36c0.073,0.647,0.142,1.306,0.209,1.97c0.004,0.028,0,0.057-0.018,0.157     C61.826,73.219,61.021,72.504,60.187,71.766"/>
			<path fill="#FFFFFF" d="M56.803,33.663c0,0.768-0.654,1.416-1.42,1.415c-0.783,0-1.448-0.658-1.444-1.438     c0.013-0.765,0.663-1.41,1.436-1.412C56.149,32.22,56.811,32.875,56.803,33.663 M55.388,32.96     c-0.369-0.006-0.701,0.317-0.71,0.68c-0.013,0.364,0.334,0.71,0.71,0.709c0.371,0,0.68-0.321,0.68-0.697     C56.068,33.274,55.759,32.96,55.388,32.96"/>
			<polygon fill="#FFFFFF" points="62.064,54.371 61.921,53.907 61.603,54.27 61.063,54.154 61.23,54.673 60.855,55.091      61.396,55.201 61.545,55.658 61.875,55.3 62.412,55.41 62.246,54.884 62.604,54.478    "/>
			<polygon fill="#FFFFFF" points="48.726,55.41 49.265,55.3 49.576,55.652 49.726,55.201 50.28,55.075 49.903,54.677      50.076,54.154 49.538,54.27 49.225,53.907 49.061,54.371 48.516,54.478 48.892,54.896    "/>
			<polygon fill="#FFFFFF" points="60.356,47.45 60.686,47.091 61.21,47.205 61.05,46.676 61.417,46.269 61.187,46.216      59.953,46.216 60.035,46.45 59.654,46.879 60.202,46.993    "/>
			<polygon fill="#FFFFFF" points="61.187,49.972 60.813,50.396 61.355,50.508 61.506,50.968 61.83,50.612 62.362,50.72      62.2,50.208 62.569,49.798 62.021,49.674 61.875,49.219 61.545,49.58 61.021,49.466    "/>
			<polygon fill="#FFFFFF" points="48.776,50.72 49.31,50.612 49.643,50.968 49.784,50.508 50.336,50.396 49.967,49.986      50.127,49.466 49.597,49.58 49.268,49.219 49.122,49.681 48.567,49.798 48.941,50.214    "/>
			<polygon fill="#FFFFFF" points="49.986,46.467 49.823,46.976 50.359,46.873 50.684,47.222 50.83,46.761 51.38,46.645      51.009,46.251 51.016,46.216 49.769,46.216    "/>
			<polygon fill="#FFFFFF" points="60.87,46.167 60.73,45.701 60.395,46.06 59.857,45.946 59.953,46.216 61.187,46.216    "/>
			<polygon fill="#FFFFFF" points="51.016,46.216 51.176,45.725 50.643,45.84 50.312,45.471 50.157,45.938 49.62,46.048      49.769,46.216    "/>
			<path fill="#FFFFFF" d="M45.201,82.566c0.483,0.185,0.784,0.432,0.982,0.867l-0.458,0.188c-0.137-0.333-0.374-0.499-0.703-0.617     c-0.419-0.15-0.722-0.068-0.839,0.23c-0.058,0.138-0.064,0.291,0,0.387c0.041,0.105,0.117,0.166,0.292,0.261l0.361,0.214     c0.246,0.123,0.423,0.295,0.513,0.48c0.097,0.212,0.097,0.455,0,0.712c-0.211,0.558-0.765,0.782-1.434,0.522     c-0.429-0.164-0.686-0.367-0.858-0.744l0.424-0.191c0.125,0.27,0.331,0.413,0.612,0.514c0.382,0.153,0.669,0.018,0.771-0.268     c0.046-0.117,0.052-0.246-0.009-0.333c-0.047-0.11-0.166-0.22-0.297-0.304l-0.347-0.195c-0.278-0.16-0.425-0.291-0.516-0.465     c-0.113-0.205-0.108-0.471-0.01-0.764C43.915,82.479,44.528,82.309,45.201,82.566"/>
			<polygon fill="#FFFFFF" points="40.347,83.641 41.721,81.027 42.184,81.268 40.806,83.876 41.64,84.332 41.427,84.746      39.287,83.622 39.51,83.209    "/>
			<path fill="#FFFFFF" d="M38.809,79.201c0.581,0.398,0.744,1.085,0.33,1.671l-1.304,1.858l-0.437-0.287l1.3-1.85     c0.267-0.388,0.196-0.777-0.147-1.023c-0.359-0.245-0.751-0.182-1.016,0.207l-1.299,1.844l-0.43-0.305l1.315-1.86     C37.527,78.872,38.238,78.784,38.809,79.201"/>
			<path fill="#FFFFFF" d="M34.825,76.337c0.312-0.012,0.603,0.119,0.868,0.369l0.891,0.821l-2.34,2.515l-0.892-0.826     c-0.255-0.239-0.42-0.519-0.423-0.845c-0.026-0.504,0.333-0.859,0.671-1.232C33.937,76.786,34.305,76.363,34.825,76.337      M33.441,78.355c-0.003,0.209,0.093,0.392,0.277,0.562l0.461,0.436l1.704-1.836l-0.465-0.431     c-0.185-0.165-0.371-0.243-0.584-0.228c-0.276,0.01-0.529,0.287-0.851,0.635C33.663,77.85,33.446,78.085,33.441,78.355"/>
			<polygon fill="#FFFFFF" points="33.778,74.749 31.186,77.003 30.845,76.609 33.432,74.352    "/>
			<path fill="#FFFFFF" d="M30.969,71.639c0.332,0.062,0.606,0.234,0.817,0.539c0.215,0.293,0.273,0.627,0.226,0.951     c-0.084,0.469-0.407,0.678-0.949,1.053c-0.54,0.387-0.843,0.609-1.314,0.53c-0.327-0.062-0.614-0.237-0.82-0.53     c-0.211-0.299-0.287-0.623-0.221-0.961c0.084-0.457,0.394-0.674,0.936-1.056C30.185,71.79,30.496,71.557,30.969,71.639      M29.185,73.369c-0.035,0.175,0.007,0.378,0.121,0.546c0.121,0.164,0.291,0.267,0.471,0.293c0.245,0.037,0.424-0.049,0.986-0.44     c0.571-0.408,0.706-0.547,0.755-0.793c0.036-0.166-0.002-0.371-0.117-0.539c-0.113-0.164-0.291-0.258-0.471-0.297     c-0.248-0.031-0.42,0.059-0.985,0.463C29.385,72.99,29.245,73.129,29.185,73.369"/>
			<path fill="#FFFFFF" d="M29.417,68.221l-0.95,1.305l0.292,0.584l1.292-0.672L30.29,69.9l-3.055,1.59l-0.609-1.186     c-0.303-0.582-0.117-1.137,0.394-1.416c0.443-0.218,0.86-0.104,1.126,0.194l0.989-1.401L29.417,68.221z M27.051,70.126     l0.366,0.681l0.953-0.502l-0.359-0.676c-0.167-0.314-0.444-0.424-0.75-0.277C26.967,69.516,26.893,69.812,27.051,70.126"/>
			<path fill="#FFFFFF" d="M27.636,63.469c0.201,0.668-0.123,1.314-0.793,1.508l-2.203,0.633l-0.135-0.506l2.17-0.621     c0.434-0.127,0.627-0.469,0.508-0.887c-0.113-0.412-0.465-0.604-0.906-0.479l-2.17,0.616l-0.141-0.496l2.19-0.633     C26.843,62.415,27.446,62.803,27.636,63.469"/>
			<polygon fill="#FFFFFF" points="26.661,58.684 24.476,60.596 26.882,60.262 26.946,60.771 23.547,61.247 23.47,60.771      25.65,58.871 23.258,59.195 23.184,58.678 26.594,58.217    "/>
			<polygon fill="#FFFFFF" points="26.511,56.596 23.083,56.678 23.065,56.16 26.51,56.066    "/>
			<polygon fill="#FFFFFF" points="26.594,53.317 26.553,53.717 23.049,54.599 23.092,54.06 25.634,53.456 23.204,52.482      23.24,51.934    "/>
			<polygon fill="#FFFFFF" points="26.843,51.01 23.468,50.344 23.891,48.179 24.355,48.271 24.037,49.921 25.017,50.11      25.301,48.713 25.752,48.798 25.467,50.204 26.488,50.396 26.808,48.757 27.266,48.841    "/>
			<path fill="#FFFFFF" d="M28.243,45.672l-1.608,0.219l-0.208,0.618l1.375,0.458l-0.166,0.497l-3.251-1.084l0.417-1.264     c0.208-0.615,0.742-0.879,1.291-0.691c0.463,0.156,0.667,0.54,0.651,0.936l1.684-0.271L28.243,45.672z M25.232,45.295     l-0.244,0.738l1.022,0.346l0.248-0.744c0.106-0.329,0-0.614-0.333-0.715C25.61,44.805,25.342,44.963,25.232,45.295"/>
			<path fill="#FFFFFF" d="M29.396,43.026c-0.22,0.462-0.492,0.745-0.93,0.896l-0.164-0.459c0.333-0.125,0.529-0.334,0.678-0.651     c0.196-0.401,0.139-0.722-0.163-0.868c-0.139-0.067-0.266-0.082-0.384-0.031c-0.104,0.045-0.173,0.099-0.294,0.269l-0.22,0.345     c-0.158,0.23-0.345,0.396-0.534,0.465c-0.213,0.085-0.457,0.058-0.709-0.066c-0.537-0.252-0.709-0.827-0.404-1.463     c0.196-0.418,0.447-0.652,0.82-0.792l0.153,0.442c-0.277,0.098-0.443,0.299-0.569,0.561c-0.17,0.363-0.065,0.665,0.21,0.788     c0.119,0.057,0.231,0.077,0.34,0.03c0.117-0.047,0.226-0.153,0.32-0.28l0.214-0.334c0.186-0.258,0.333-0.382,0.51-0.457     c0.239-0.1,0.489-0.082,0.76,0.047C29.594,41.754,29.719,42.379,29.396,43.026"/>
			<polygon fill="#FFFFFF" points="30.641,40.661 27.718,38.858 27.983,38.417 30.924,40.21    "/>
			<polygon fill="#FFFFFF" points="30.136,36.125 32.51,37.917 32.199,38.332 29.832,36.543 29.26,37.294 28.886,37.008      30.343,35.086 30.72,35.371    "/>
			<path fill="#FFFFFF" d="M35.122,34.952l-0.663-0.313l-0.945,0.988l0.34,0.642l-0.383,0.403l-1.622-3.282l0.288-0.302l3.373,1.457     L35.122,34.952z M32.567,33.763l0.737,1.445l0.732-0.769L32.567,33.763z"/>
			<path fill="#FFFFFF" d="M37.137,33.196c-0.408,0.324-0.764,0.473-1.235,0.418l0.06-0.489c0.343,0.043,0.61-0.083,0.884-0.293     c0.346-0.291,0.426-0.604,0.214-0.865c-0.088-0.116-0.208-0.18-0.328-0.186c-0.116-0.012-0.206,0.011-0.386,0.125l-0.34,0.211     c-0.243,0.14-0.485,0.212-0.688,0.195c-0.222-0.022-0.429-0.138-0.6-0.355c-0.378-0.454-0.304-1.052,0.252-1.5     c0.344-0.288,0.668-0.406,1.073-0.374l-0.052,0.459c-0.296-0.017-0.518,0.082-0.749,0.271c-0.314,0.257-0.346,0.575-0.146,0.809     c0.078,0.098,0.172,0.168,0.294,0.168s0.266-0.04,0.413-0.124l0.333-0.203c0.281-0.162,0.461-0.214,0.662-0.208     c0.252,0.014,0.47,0.151,0.663,0.372C37.852,32.124,37.689,32.744,37.137,33.196"/>
			<path fill="#FFFFFF" d="M75.075,32.572l-0.592-0.502l-0.874,1.03l-0.403-0.338l2.221-2.631l0.998,0.842     c0.515,0.44,0.558,1.054,0.166,1.514C76.203,32.946,75.59,33.002,75.075,32.572 M76.1,31.319l-0.573-0.485l-0.747,0.875     l0.58,0.484c0.281,0.226,0.598,0.226,0.834-0.047C76.428,31.875,76.37,31.542,76.1,31.319"/>
			<path fill="#FFFFFF" d="M76.97,36.354c-0.465-0.517-0.463-1.23,0.06-1.709l1.705-1.52l0.348,0.393l-1.679,1.5     c-0.34,0.31-0.375,0.696-0.084,1.026c0.292,0.322,0.686,0.336,1.034,0.042l1.675-1.5l0.348,0.38l-1.698,1.522     C78.152,36.959,77.441,36.879,76.97,36.354"/>
			<path fill="#FFFFFF" d="M79.694,39.878l-0.763-1.168l2.869-1.883l0.729,1.114c0.358,0.529,0.279,1.062-0.208,1.39     c-0.309,0.204-0.667,0.152-0.868,0.007c0.062,0.289-0.012,0.63-0.382,0.872C80.549,40.557,80.028,40.382,79.694,39.878      M80.938,39.003l-0.451-0.683l-0.876,0.57l0.453,0.694c0.195,0.294,0.495,0.341,0.751,0.172     C81.068,39.59,81.134,39.303,80.938,39.003 M82.115,38.167l-0.419-0.653l-0.828,0.543l0.428,0.653     c0.189,0.272,0.455,0.37,0.726,0.196C82.279,38.729,82.305,38.44,82.115,38.167"/>
			<polygon fill="#FFFFFF" points="81.111,42.296 84.214,40.82 84.446,41.294 81.762,42.563 82.472,44.057 82.05,44.257    "/>
			<polygon fill="#FFFFFF" points="82.612,45.775 85.864,44.636 86.031,45.13 82.78,46.264    "/>
			<path fill="#FFFFFF" d="M83.571,49.188c-0.078-0.347-0.014-0.681,0.166-0.967c0.252-0.399,0.625-0.476,1.269-0.63     c0.65-0.137,1.025-0.228,1.422,0.027c0.279,0.178,0.478,0.449,0.561,0.802c0.132,0.614-0.124,1.16-0.759,1.424l-0.118-0.511     c0.316-0.161,0.501-0.448,0.417-0.813c-0.042-0.196-0.165-0.356-0.316-0.448c-0.22-0.123-0.42-0.116-1.099,0.033     c-0.668,0.155-0.847,0.237-0.997,0.443c-0.092,0.141-0.129,0.335-0.089,0.542c0.086,0.374,0.377,0.542,0.735,0.542l0.111,0.519     C84.186,50.187,83.71,49.798,83.571,49.188"/>
			<path fill="#FFFFFF" d="M84.28,53.963l0.667-0.288l-0.116-1.35l-0.711-0.181l-0.048-0.553l3.542,0.957l0.038,0.417l-3.328,1.556     L84.28,53.963z M86.862,52.843l-1.58-0.408l0.096,1.061L86.862,52.843z"/>
			<path fill="#FFFFFF" d="M84.031,59.379c0.094-0.701,0.638-1.162,1.339-1.078l2.266,0.303l-0.062,0.525l-2.249-0.299     c-0.453-0.064-0.767,0.182-0.828,0.602c-0.05,0.424,0.199,0.748,0.652,0.811l2.23,0.299l-0.062,0.512l-2.263-0.293     C84.348,60.661,83.945,60.068,84.031,59.379"/>
			<path fill="#FFFFFF" d="M83,64.219l1.592-0.289l0.184-0.627L83.374,62.9l0.153-0.506l3.293,0.953l-0.359,1.278     c-0.18,0.629-0.694,0.911-1.262,0.757c-0.464-0.145-0.689-0.52-0.682-0.916l-1.686,0.336L83,64.219z M86.031,64.462l0.208-0.743     l-1.041-0.293l-0.208,0.738c-0.092,0.336,0.033,0.615,0.356,0.708C85.667,64.971,85.93,64.8,86.031,64.462"/>
			<path fill="#FFFFFF" d="M81.687,67.619l0.567-1.271l3.136,1.418l-0.551,1.207c-0.267,0.58-0.759,0.803-1.282,0.571     c-0.339-0.157-0.486-0.481-0.479-0.726c-0.208,0.195-0.546,0.318-0.932,0.148C81.571,68.701,81.436,68.18,81.687,67.619      M83.081,68.193l0.342-0.75l-0.955-0.43l-0.338,0.75c-0.142,0.336-0.027,0.607,0.246,0.736     C82.654,68.631,82.941,68.521,83.081,68.193 M84.433,68.757l0.311-0.706l-0.891-0.414l-0.325,0.713     c-0.127,0.295-0.07,0.582,0.22,0.705C84.039,69.186,84.288,69.055,84.433,68.757"/>
			<polygon fill="#FFFFFF" points="80.376,70.126 83.328,71.891 83.071,72.336 80.113,70.568    "/>
			<polygon fill="#FFFFFF" points="77.8,73.854 80.689,74.075 78.774,72.602 79.088,72.184 81.814,74.283 81.522,74.662      78.642,74.449 80.549,75.925 80.235,76.337 77.507,74.229    "/>
			<path fill="#FFFFFF" d="M74.818,76.998l0.649,0.339l0.975-0.948l-0.309-0.664l0.395-0.377l1.487,3.35l-0.308,0.279l-3.293-1.599     L74.818,76.998z M77.319,78.284l-0.677-1.476l-0.763,0.738L77.319,78.284z"/>
			<polygon fill="#FFFFFF" points="74.32,81.208 72.54,78.85 72.959,78.539 74.735,80.895 75.5,80.338 75.776,80.708 73.855,82.16      73.568,81.79    "/>
			<polygon fill="#FFFFFF" points="70.441,80.281 72.125,83.275 70.215,84.354 69.984,83.955 71.441,83.123 70.948,82.238      69.707,82.953 69.481,82.541 70.732,81.842 70.222,80.943 68.763,81.766 68.524,81.359    "/>
			<polygon fill="#FFFFFF" points="65.023,82.848 67.37,84.54 66.501,82.281 66.986,82.079 68.228,85.289 67.773,85.455      65.43,83.788 66.296,86.041 65.814,86.214 64.569,83.021    "/>
		</g>
	</g>
</g>
</svg>